# xmcd CD database file
#
# Track frame offsets:
#	150
#	20005
#	37526
#	57060
#	82196
#	96496
#	117695
#	135060
#	149404
#	167144
#	186328
#	204973
#	220435
#	236343
#	252532
#	270888
#	285697
#	301732
#	315478
#	331045
#
# Disc length: 4778 seconds
#
# Revision: 3
# Processed by: cddbd v1.5.2PL0 Copyright (c) Steve Scherf et al.
# Submitted via: CDex 1.79
#
DISCID=1812a814
DTITLE=David Bowie - Nothing Has Changed 2/3
DYEAR=2014
DGENRE=Blues
TTITLE0=David Bowie - Buddha Of Suburbia
TTITLE1=David Bowie - Jump They Say [Radio Edit]
TTITLE2=David Bowie - Time Will Crawl [MM Remix]
TTITLE3=David Bowie - Absolute Beginners [Single]
TTITLE4=David Bowie and Mick Jagger - Dancing In The Street
TTITLE5=David Bowie - Loving The Alien [Single Remix]
TTITLE6=David Bowie with The Pat Metheny Group - This Is Not America
TTITLE7=David Bowie - Blue Jean
TTITLE8=David Bowie - Modern Love [Single]
TTITLE9=David Bowie - China Girl [Single]
TTITLE10=David Bowie - Let's Dance [Single]
TTITLE11=David Bowie - Fashion [Single]
TTITLE12=David Bowie - Scary Monsters (And Super Creeps) [Single]
TTITLE13=David Bowie - Ashes To Ashes [Single]
TTITLE14=Queen and David Bowie - Under Pressure
TTITLE15=David Bowie - Boys Keep Swinging
TTITLE16=David Bowie - "Heroes" [Single]
TTITLE17=David Bowie - Sound And Vision
TTITLE18=David Bowie - Golden Years [Single]
TTITLE19=David Bowie - Wild Is The Wind [2010 Harry Maslin Mix]
EXTD=YEAR: 2014
EXTT0=
EXTT1=
EXTT2=
EXTT3=
EXTT4=
EXTT5=
EXTT6=
EXTT7=
EXTT8=
EXTT9=
EXTT10=
EXTT11=
EXTT12=
EXTT13=
EXTT14=
EXTT15=
EXTT16=
EXTT17=
EXTT18=
EXTT19=
PLAYORDER=
